# xmcd
#
# Track frame offsets: 
#        150
#        10977
#        23084
#        37119
#        53857
#        63974
#        79432
#        92211
#        106646
#        119331
#        136565
#        149488
#        161461
#
# Disc length: 2291 seconds
#
# Revision: 0
# Processed by: cddbd v1.5.2PL0 Copyright (c) Steve Scherf et al.
# Submitted via: ExactAudioCopy v0.95a4
#
DISCID=a708f10d
DTITLE=Novy Rownak - Najednou je noc
DYEAR=2006
DGENRE=Country
TTITLE0=Cas jde dal
TTITLE1=Mne se zda
TTITLE2=Jeste jednou
TTITLE3=Najednou je noc
TTITLE4=Utek
TTITLE5=Neni tu mista
TTITLE6=Pan cas
TTITLE7=Prazdna naruc
TTITLE8=Slniecko horuce
TTITLE9=Smecka psu
TTITLE10=Volnej pad
TTITLE11=Laska z drahy
TTITLE12=Stromy
EXTD=
EXTT0=
EXTT1=
EXTT2=
EXTT3=
EXTT4=
EXTT5=
EXTT6=
EXTT7=
EXTT8=
EXTT9=
EXTT10=
EXTT11=
EXTT12=
PLAYORDER=
